<svg width="50" height="35" viewBox="0 0 50 35" fill="none" xmlns="http://www.w3.org/2000/svg">
<path d="M3.38775 11.968L0.84375 5.92L11.8838 0.399998H16.5878V34H9.38775V9.232L3.38775 11.968ZM28.0808 20.368L23.0408 17.392L24.8168 0.399998H47.2808V7.36H31.1528L30.5288 12.544C31.7768 11.904 34.0648 11.584 37.3928 11.584C41.0408 11.584 43.9208 12.576 46.0328 14.56C48.1448 16.544 49.2008 19.296 49.2008 22.816C49.2008 26.592 47.8888 29.472 45.2648 31.456C42.6728 33.408 39.4568 34.384 35.6168 34.384C32.0328 34.384 29.0568 33.712 26.6888 32.368C24.3207 31.024 22.4008 28.832 20.9288 25.792L27.6488 22.816C28.1928 24.16 29.2328 25.232 30.7688 26.032C32.3048 26.8 33.8568 27.184 35.4248 27.184C37.0248 27.184 38.4328 26.848 39.6488 26.176C40.8968 25.504 41.5208 24.432 41.5208 22.96C41.5208 21.328 40.9128 20.144 39.6968 19.408C38.5128 18.672 37.0568 18.304 35.3288 18.304C33.8248 18.304 32.5608 18.448 31.5368 18.736C30.5448 19.024 29.3928 19.568 28.0808 20.368Z" fill="white"/>
</svg>
