<svg width="44" height="34" viewBox="0 0 44 34" fill="none" xmlns="http://www.w3.org/2000/svg">
<path d="M7.1275 12.64L0.6475 10.192C1.4795 6.992 3.1595 4.512 5.6875 2.752C8.2155 0.959999 11.1435 0.0639992 14.4715 0.0639992C18.1515 0.0639992 21.1115 1.04 23.3515 2.992C25.6235 4.912 26.7595 7.648 26.7595 11.2C26.7595 12.832 26.4875 14.368 25.9435 15.808C25.3995 17.248 24.5995 18.56 23.5435 19.744C22.5195 20.928 21.4635 21.968 20.3755 22.864C19.2875 23.728 17.9915 24.64 16.4875 25.6L14.2315 27.04H27.0955V34H1.1275V28.576L5.1115 25.792C7.1915 24.384 9.7355 22.592 12.7435 20.416C13.8635 19.552 14.8075 18.784 15.5755 18.112C16.3755 17.408 17.1595 16.464 17.9275 15.28C18.6955 14.096 19.0795 12.96 19.0795 11.872C19.0795 10.336 18.6475 9.184 17.7835 8.416C16.9195 7.648 15.7195 7.264 14.1835 7.264C10.8555 7.264 8.5035 9.056 7.1275 12.64ZM30.7315 11.968L28.1875 5.92L39.2275 0.399998H43.9315V34H36.7315V9.232L30.7315 11.968Z" fill="white"/>
</svg>
