<svg width="144" height="144" viewBox="0 0 144 144" fill="none" xmlns="http://www.w3.org/2000/svg">
<g filter="url(#filter0_d_3054_356)">
<rect x="40" y="32" width="64" height="64" rx="32" fill="white"/>
</g>
<path d="M68.0715 62L65.5995 60.896C66.0635 59.6 66.8955 58.624 68.0955 57.968C69.3115 57.312 70.6635 56.984 72.1515 56.984C73.0955 56.984 74.0075 57.112 74.8875 57.368C75.7675 57.624 76.5435 58.088 77.2155 58.76C77.8875 59.432 78.2235 60.248 78.2235 61.208C78.2235 62.104 77.9755 62.912 77.4795 63.632C76.9995 64.336 76.3435 64.808 75.5115 65.048C76.4715 65.24 77.2235 65.696 77.7675 66.416C78.3115 67.136 78.5835 67.992 78.5835 68.984C78.5835 70.616 77.9515 71.896 76.6875 72.824C75.4235 73.736 73.9515 74.192 72.2715 74.192C70.7035 74.192 69.2555 73.84 67.9275 73.136C66.6155 72.416 65.7275 71.376 65.2635 70.016L67.9035 68.912C68.0635 69.264 68.3355 69.632 68.7195 70.016C69.0715 70.416 69.5675 70.752 70.2075 71.024C70.8635 71.28 71.4715 71.408 72.0315 71.408C72.9275 71.408 73.7435 71.216 74.4795 70.832C75.2155 70.432 75.5835 69.824 75.5835 69.008C75.5835 68.512 75.4555 68.096 75.1995 67.76C74.9435 67.424 74.5755 67.192 74.0955 67.064C73.6315 66.92 73.2075 66.832 72.8235 66.8C72.4555 66.752 72.0155 66.728 71.5035 66.728H69.8715V64.088H71.5995C72.4635 64.088 73.2875 63.904 74.0715 63.536C74.8555 63.152 75.2475 62.576 75.2475 61.808C75.2475 61.072 74.8955 60.544 74.1915 60.224C73.5035 59.888 72.7435 59.72 71.9115 59.72C70.1195 59.72 68.8395 60.48 68.0715 62Z" fill="#FF5545"/>
<defs>
<filter id="filter0_d_3054_356" x="0" y="0" width="144" height="144" filterUnits="userSpaceOnUse" color-interpolation-filters="sRGB">
<feFlood flood-opacity="0" result="BackgroundImageFix"/>
<feColorMatrix in="SourceAlpha" type="matrix" values="0 0 0 0 0 0 0 0 0 0 0 0 0 0 0 0 0 0 127 0" result="hardAlpha"/>
<feOffset dy="8"/>
<feGaussianBlur stdDeviation="20"/>
<feColorMatrix type="matrix" values="0 0 0 0 0 0 0 0 0 0 0 0 0 0 0 0 0 0 0.1 0"/>
<feBlend mode="normal" in2="BackgroundImageFix" result="effect1_dropShadow_3054_356"/>
<feBlend mode="normal" in="SourceGraphic" in2="effect1_dropShadow_3054_356" result="shape"/>
</filter>
</defs>
</svg>
