<svg width="60" height="36" viewBox="0 0 60 36" fill="none" xmlns="http://www.w3.org/2000/svg">
<path d="M6.8585 12.344L0.9065 9.56C3.0825 3.832 7.7865 0.967998 15.0185 0.967998C18.2505 0.967998 21.0185 1.72 23.3225 3.224C25.6585 4.696 26.8265 6.936 26.8265 9.944C26.8265 13.144 25.3705 15.432 22.4585 16.808C26.1065 18.12 27.9305 20.712 27.9305 24.584C27.9305 28.072 26.6985 30.744 24.2345 32.6C21.7705 34.456 18.7305 35.384 15.1145 35.384C11.4025 35.384 8.3145 34.712 5.8505 33.368C3.3865 32.024 1.5465 29.736 0.3305 26.504L6.8585 23.576C7.1785 24.6 7.7545 25.512 8.5865 26.312C9.4505 27.112 10.4105 27.656 11.4665 27.944C12.4265 28.264 13.3865 28.424 14.3465 28.424C15.8185 28.424 17.1625 28.12 18.3785 27.512C19.6265 26.872 20.2505 25.896 20.2505 24.584C20.2505 23.784 19.9625 23.112 19.3865 22.568C18.8425 22.024 18.1385 21.64 17.2745 21.416C16.3145 21.256 15.4985 21.176 14.8265 21.176H9.9305V14.456H13.8665C15.1465 14.456 16.3465 14.184 17.4665 13.64C18.5865 13.096 19.1465 12.248 19.1465 11.096C19.1465 10.104 18.7625 9.32 17.9945 8.744C17.1625 8.2 15.9465 7.928 14.3465 7.928C10.6985 7.928 8.2025 9.4 6.8585 12.344ZM44.783 14.648H46.127C47.471 14.648 48.671 14.36 49.727 13.784C50.783 13.208 51.311 12.312 51.311 11.096C51.311 8.856 49.327 7.736 45.359 7.736C44.719 7.736 44.095 7.784 43.487 7.88C42.911 7.944 42.287 8.088 41.615 8.312C40.975 8.536 40.463 8.888 40.079 9.368C39.695 9.816 39.503 10.376 39.503 11.048C39.503 12.072 39.983 12.92 40.943 13.592C41.839 14.296 43.119 14.648 44.783 14.648ZM46.031 20.888H44.927C43.999 20.888 43.087 20.984 42.191 21.176C41.295 21.368 40.447 21.768 39.647 22.376C38.879 22.984 38.495 23.768 38.495 24.728C38.495 25.752 38.911 26.584 39.743 27.224C40.607 27.832 41.503 28.232 42.431 28.424C43.359 28.584 44.351 28.664 45.407 28.664C46.463 28.664 47.439 28.6 48.335 28.472C49.263 28.312 50.159 27.928 51.023 27.32C51.887 26.712 52.319 25.896 52.319 24.872C52.319 22.216 50.223 20.888 46.031 20.888ZM50.495 34.856C48.895 35.208 47.215 35.384 45.455 35.384C43.695 35.384 41.999 35.224 40.367 34.904C38.767 34.584 37.215 34.072 35.711 33.368C34.239 32.632 33.055 31.576 32.159 30.2C31.263 28.824 30.815 27.192 30.815 25.304C30.815 23.704 31.263 22.168 32.159 20.696C33.087 19.192 34.255 18.12 35.663 17.48C34.575 16.936 33.663 15.992 32.927 14.648C32.191 13.304 31.823 12.008 31.823 10.76C31.823 9 32.223 7.464 33.023 6.152C33.855 4.84 34.943 3.832 36.287 3.128C37.663 2.392 39.103 1.864 40.607 1.544C42.143 1.192 43.743 1.016 45.407 1.016C47.103 1.016 48.703 1.176 50.207 1.496C51.743 1.816 53.183 2.328 54.527 3.032C55.903 3.736 56.991 4.76 57.791 6.104C58.591 7.416 58.991 8.968 58.991 10.76C58.991 13.768 57.727 15.944 55.199 17.288C56.767 17.864 57.951 18.872 58.751 20.312C59.583 21.72 59.999 23.32 59.999 25.112C59.999 27 59.551 28.648 58.655 30.056C57.791 31.432 56.623 32.488 55.151 33.224C53.679 33.96 52.127 34.504 50.495 34.856Z" fill="white"/>
</svg>
