<svg width="62" height="35" viewBox="0 0 62 35" fill="none" xmlns="http://www.w3.org/2000/svg">
<path d="M25.0371 34H17.8371V28.144H0.0290625V23.344L19.0851 0.399998H25.0371V21.664H30.1731V28.144H25.0371V34ZM17.8371 12.304L9.62906 21.664H17.8371V12.304ZM32.0728 17.2C32.0728 12.176 33.3528 8.064 35.9128 4.864C38.4728 1.664 42.1368 0.0639992 46.9048 0.0639992C50.1688 0.0639992 52.9528 0.879999 55.2568 2.512C57.5608 4.112 59.2248 6.176 60.2488 8.704C61.2728 11.2 61.7848 14.032 61.7848 17.2C61.7848 22.192 60.5048 26.304 57.9448 29.536C55.3848 32.736 51.7368 34.336 47.0008 34.336C42.1048 34.336 38.3928 32.72 35.8648 29.488C33.3368 26.224 32.0728 22.128 32.0728 17.2ZM39.7528 17.2C39.7528 18.928 39.9448 20.496 40.3288 21.904C40.7448 23.312 41.5128 24.544 42.6328 25.6C43.7848 26.624 45.2408 27.136 47.0008 27.136C51.7368 27.136 54.1048 23.824 54.1048 17.2C54.1048 10.576 51.7048 7.264 46.9048 7.264C44.3768 7.264 42.5528 8.24 41.4328 10.192C40.3128 12.112 39.7528 14.448 39.7528 17.2Z" fill="white"/>
</svg>
