<svg width="148" height="21" viewBox="0 0 148 21" fill="none" xmlns="http://www.w3.org/2000/svg">
<path d="M5.16 20H0.82V0.399999H4.852L11.124 9.78L17.088 0.399999H21.008V20H16.668V8.24L11.572 16.052H10.424L5.16 8.156V20ZM34.0444 12.076L27.5204 20H24.0764V5.44H28.1364V13.364L34.6604 5.44H38.1044V20H34.0444V12.076ZM50.6154 5.44H55.5154L49.9434 12.496L55.7674 20H50.7274L47.3954 15.548L43.9514 20H39.0794L44.9034 12.524L39.3594 5.44H44.3714L47.4794 9.388L50.6154 5.44ZM67.0726 14.848L69.5086 17.312C67.9593 19.2533 65.8686 20.224 63.2366 20.224C60.9033 20.224 59.0086 19.5333 57.5526 18.152C56.0966 16.7707 55.3686 14.9507 55.3686 12.692C55.3686 10.396 56.0593 8.56667 57.4406 7.204C58.8406 5.82267 60.6699 5.132 62.9286 5.132C64.9633 5.132 66.6246 5.748 67.9126 6.98C69.2193 8.212 69.8726 9.82667 69.8726 11.824C69.8726 12.3467 69.7979 13.1307 69.6486 14.176H59.6246C59.8113 14.9413 60.2499 15.5107 60.9406 15.884C61.6313 16.2573 62.4153 16.444 63.2926 16.444C64.9353 16.444 66.1953 15.912 67.0726 14.848ZM62.7886 8.772C61.2393 8.772 60.2126 9.40667 59.7086 10.676H65.6726C65.3366 9.40667 64.3753 8.772 62.7886 8.772ZM84.7463 20H80.6863V9.22H76.7383V9.612C76.7383 10.396 76.7196 11.1053 76.6823 11.74C76.6449 12.356 76.5703 13.112 76.4583 14.008C76.3649 14.8853 76.1876 15.66 75.9263 16.332C75.6836 16.9853 75.3663 17.62 74.9743 18.236C74.6009 18.852 74.0969 19.328 73.4623 19.664C72.8276 19.9813 72.0903 20.14 71.2503 20.14C70.7276 20.14 70.2423 20.0933 69.7943 20V16.36C69.9063 16.3787 70.0743 16.388 70.2983 16.388C70.9703 16.388 71.4556 16.1827 71.7543 15.772C72.0716 15.3613 72.3236 14.764 72.5103 13.98C72.7716 12.8787 72.9023 11.0867 72.9023 8.604V5.44H84.7463V20ZM93.5118 20H87.2678V5.44H91.3278V9.304H93.7078C95.6678 9.304 97.2171 9.73333 98.3558 10.592C99.4945 11.432 100.064 12.776 100.064 14.624C100.064 16.4533 99.4385 17.8067 98.1878 18.684C96.9558 19.5613 95.3971 20 93.5118 20ZM93.4278 13.084H91.3278V16.22H93.4278C95.0518 16.22 95.8638 15.6973 95.8638 14.652C95.8638 14.204 95.7238 13.8587 95.4438 13.616C95.1825 13.3733 94.8931 13.224 94.5758 13.168C94.2771 13.112 93.8945 13.084 93.4278 13.084ZM112.541 14.54L115.509 16.304C114.874 17.536 113.969 18.4973 112.793 19.188C111.617 19.8787 110.329 20.224 108.929 20.224C106.614 20.224 104.719 19.5333 103.245 18.152C101.77 16.7707 101.033 14.9507 101.033 12.692C101.033 10.4707 101.761 8.66 103.217 7.26C104.691 5.84133 106.53 5.132 108.733 5.132C110.189 5.132 111.523 5.43067 112.737 6.028C113.969 6.62533 114.855 7.54 115.397 8.772L112.373 10.732C111.887 10.0973 111.393 9.64 110.889 9.36C110.385 9.06133 109.75 8.912 108.985 8.912C107.865 8.912 106.959 9.26667 106.269 9.976C105.578 10.6667 105.233 11.572 105.233 12.692C105.233 13.7933 105.643 14.6987 106.465 15.408C107.286 16.0987 108.257 16.444 109.377 16.444C110.721 16.444 111.775 15.8093 112.541 14.54ZM115.99 12.692C115.99 10.452 116.746 8.632 118.258 7.232C119.77 5.832 121.636 5.132 123.858 5.132C126.116 5.132 128.002 5.84133 129.514 7.26C131.026 8.66 131.782 10.4707 131.782 12.692C131.782 14.932 131.016 16.752 129.486 18.152C127.955 19.5333 126.079 20.224 123.858 20.224C121.636 20.224 119.77 19.5147 118.258 18.096C116.746 16.6773 115.99 14.876 115.99 12.692ZM120.19 12.692C120.19 13.756 120.535 14.652 121.226 15.38C121.935 16.0893 122.812 16.444 123.858 16.444C124.978 16.444 125.874 16.0987 126.546 15.408C127.236 14.7173 127.582 13.812 127.582 12.692C127.582 11.5907 127.236 10.6853 126.546 9.976C125.855 9.26667 124.959 8.912 123.858 8.912C122.756 8.912 121.87 9.26667 121.198 9.976C120.526 10.6853 120.19 11.5907 120.19 12.692ZM147.28 20H143.22V14.54H137.648V20H133.588V5.44H137.648V10.76H143.22V5.44H147.28V20Z" fill="black"/>
</svg>
